<svg width="24" height="24" viewBox="0 0 24 24" fill="none" xmlns="http://www.w3.org/2000/svg">
<path fill-rule="evenodd" clip-rule="evenodd" d="M9.74975 2.99853C9.74975 2.58432 9.41396 2.24854 8.99975 2.24854C8.58554 2.24854 8.24976 2.58432 8.24976 2.99853V4.49533H2.24902C1.83481 4.49533 1.49902 4.83112 1.49902 5.24533C1.49902 5.65954 1.83481 5.99532 2.24902 5.99532H8.92986C8.95287 5.99745 8.97618 5.99854 8.99975 5.99854C9.02332 5.99854 9.04664 5.99745 9.06965 5.99532H12.172C12.0304 6.41984 11.8349 6.96409 11.5818 7.57903C11.0539 8.86158 10.2851 10.4278 9.24779 11.8539C7.99716 10.2719 7.08829 8.74957 6.67074 7.91448C6.4855 7.544 6.03499 7.39383 5.66451 7.57907C5.29403 7.76431 5.14386 8.21482 5.3291 8.5853C5.80244 9.53198 6.84247 11.2727 8.28552 13.0519C7.11774 14.3963 5.95563 15.4303 5.05178 16.1483C4.54093 16.5542 4.11412 16.8579 3.81762 17.0586C3.66942 17.1589 3.55393 17.2334 3.47695 17.2819C3.43847 17.3062 3.40962 17.3239 3.39115 17.3352L3.37131 17.3472L3.36711 17.3497C3.01076 17.5604 2.89244 18.02 3.10287 18.3765C3.31339 18.7333 3.77355 18.8516 4.13028 18.6411L4.13161 18.6403L4.13431 18.6387L4.14281 18.6336L4.17195 18.616C4.19669 18.6009 4.23193 18.5791 4.27694 18.5508C4.36696 18.494 4.49609 18.4106 4.65844 18.3008C4.98304 18.081 5.44099 17.7549 5.98483 17.3228C6.90771 16.5896 8.08234 15.5481 9.27345 14.2004C9.96289 14.9548 10.7198 15.6863 11.5314 16.3355C11.8548 16.5943 12.3268 16.5419 12.5856 16.2184C12.8443 15.895 12.7919 15.423 12.4684 15.1642C11.6663 14.5225 10.9179 13.7889 10.2398 13.0331C11.4882 11.3944 12.3803 9.58003 12.9689 8.14993C13.2901 7.3696 13.5241 6.69566 13.6784 6.21501C13.7036 6.13656 13.7266 6.0632 13.7476 5.99532H15.749C16.1632 5.99532 16.499 5.65954 16.499 5.24533C16.499 4.83112 16.1632 4.49533 15.749 4.49533H13.1964C13.1886 4.49521 13.1809 4.49521 13.1731 4.49533H9.74975V2.99853ZM3.74877 17.9953C4.12996 18.6412 4.13028 18.6411 4.13028 18.6411L3.74877 17.9953ZM17.2481 9.74332C17.5481 9.74332 17.8193 9.92211 17.9375 10.1979L22.4375 20.6979C22.6006 21.0786 22.4243 21.5195 22.0436 21.6827C21.6628 21.8458 21.2219 21.6695 21.0588 21.2888L19.968 18.7436H14.5283L13.4375 21.2888C13.2743 21.6695 12.8334 21.8458 12.4527 21.6827C12.072 21.5195 11.8956 21.0786 12.0588 20.6979L16.5588 10.1979C16.6769 9.92211 16.9481 9.74332 17.2481 9.74332ZM15.1711 17.2436H19.3251L17.2481 12.3972L15.1711 17.2436Z" fill="#555B7C"/>
</svg>
