<svg width="24" height="24" viewBox="0 0 24 24" fill="none" xmlns="http://www.w3.org/2000/svg">
<path d="M8.19148 6.86373L8.19148 13.0191C8.19148 13.5824 8.62036 14.0432 9.14454 14.0432C9.66873 14.0432 10.0976 13.5824 10.0976 13.0191L10.0976 6.86373L11.8036 6.86373C12.2325 6.86373 12.4422 6.31067 12.1372 5.99317L9.47812 3.14595C9.2875 2.95135 8.99205 2.95135 8.80144 3.14595L6.14238 5.99317C5.8374 6.31067 6.05661 6.86373 6.47596 6.86373L8.19148 6.86373ZM15.1965 20.8541L17.8556 17.9966C18.1606 17.6791 17.9509 17.126 17.522 17.126L15.816 17.126L15.816 10.9707C15.816 10.4074 15.3871 9.94651 14.8629 9.94651C14.3388 9.94651 13.9099 10.4074 13.9099 10.9707L13.9099 17.126L12.2039 17.126C11.775 17.126 11.5653 17.6791 11.8703 17.9966L14.5294 20.8541C14.7105 21.0486 15.0154 21.0486 15.1965 20.8541Z" fill="#7B8091"/>
</svg>
