<svg width="24" height="24" viewBox="0 0 24 24" fill="none" xmlns="http://www.w3.org/2000/svg">
<path fill-rule="evenodd" clip-rule="evenodd" d="M12 6.00006H8C5.79086 6.00006 4 7.79092 4 10.0001V11.0001C4 12.6569 5.34315 14.0001 7 14.0001V16.0001C4.23858 16.0001 2 13.7615 2 11.0001V10.0001C2 6.68635 4.68629 4.00006 8 4.00006H12V2.72806C12 2.62021 12.0349 2.51525 12.0994 2.42885C12.2647 2.20761 12.578 2.16222 12.7992 2.32747L15.6562 4.46143C15.6951 4.49048 15.7296 4.52504 15.7585 4.56402C15.9231 4.78576 15.8768 5.09893 15.655 5.26351L12.798 7.3841C12.7118 7.44807 12.6073 7.48261 12.5 7.48261C12.2239 7.48261 12 7.25875 12 6.98261V6.00006Z" fill="#555B7C"/>
<path fill-rule="evenodd" clip-rule="evenodd" d="M12.0582 18H15.9999C18.2091 18 19.9999 16.2091 19.9999 14V13C19.9999 11.3431 18.6568 10 16.9999 10V8C19.7613 8 21.9999 10.2386 21.9999 13V14C21.9999 17.3137 19.3136 20 15.9999 20H12.0582V20.9826C12.0582 21.2587 11.8344 21.4826 11.5582 21.4826C11.4509 21.4826 11.3464 21.448 11.2602 21.384L8.4032 19.2635C8.18146 19.0989 8.13513 18.7857 8.29971 18.564C8.32864 18.525 8.3631 18.4904 8.402 18.4614L11.259 16.3274C11.4803 16.1622 11.7936 16.2075 11.9588 16.4288C12.0234 16.5152 12.0582 16.6202 12.0582 16.728V18Z" fill="#555B7C"/>
</svg>
